<svg version="1.1" xmlns="http://www.w3.org/2000/svg" width="39" height="42" viewBox="0 0 39 42">
<path d="M12 32.25v-4.5c0-0.422-0.328-0.75-0.75-0.75h-7.5c-0.422 0-0.75 0.328-0.75 0.75v4.5c0 0.422 0.328 0.75 0.75 0.75h7.5c0.422 0 0.75-0.328 0.75-0.75zM12 23.25v-4.5c0-0.422-0.328-0.75-0.75-0.75h-7.5c-0.422 0-0.75 0.328-0.75 0.75v4.5c0 0.422 0.328 0.75 0.75 0.75h7.5c0.422 0 0.75-0.328 0.75-0.75zM24 32.25v-4.5c0-0.422-0.328-0.75-0.75-0.75h-7.5c-0.422 0-0.75 0.328-0.75 0.75v4.5c0 0.422 0.328 0.75 0.75 0.75h7.5c0.422 0 0.75-0.328 0.75-0.75zM12 14.25v-4.5c0-0.422-0.328-0.75-0.75-0.75h-7.5c-0.422 0-0.75 0.328-0.75 0.75v4.5c0 0.422 0.328 0.75 0.75 0.75h7.5c0.422 0 0.75-0.328 0.75-0.75zM24 23.25v-4.5c0-0.422-0.328-0.75-0.75-0.75h-7.5c-0.422 0-0.75 0.328-0.75 0.75v4.5c0 0.422 0.328 0.75 0.75 0.75h7.5c0.422 0 0.75-0.328 0.75-0.75zM36 32.25v-4.5c0-0.422-0.328-0.75-0.75-0.75h-7.5c-0.422 0-0.75 0.328-0.75 0.75v4.5c0 0.422 0.328 0.75 0.75 0.75h7.5c0.422 0 0.75-0.328 0.75-0.75zM24 14.25v-4.5c0-0.422-0.328-0.75-0.75-0.75h-7.5c-0.422 0-0.75 0.328-0.75 0.75v4.5c0 0.422 0.328 0.75 0.75 0.75h7.5c0.422 0 0.75-0.328 0.75-0.75zM36 23.25v-4.5c0-0.422-0.328-0.75-0.75-0.75h-7.5c-0.422 0-0.75 0.328-0.75 0.75v4.5c0 0.422 0.328 0.75 0.75 0.75h7.5c0.422 0 0.75-0.328 0.75-0.75zM36 14.25v-4.5c0-0.422-0.328-0.75-0.75-0.75h-7.5c-0.422 0-0.75 0.328-0.75 0.75v4.5c0 0.422 0.328 0.75 0.75 0.75h7.5c0.422 0 0.75-0.328 0.75-0.75zM39 6.75v25.5c0 2.063-1.688 3.75-3.75 3.75h-31.5c-2.063 0-3.75-1.688-3.75-3.75v-25.5c0-2.063 1.688-3.75 3.75-3.75h31.5c2.063 0 3.75 1.688 3.75 3.75z"></path>
</svg>
